<?xml version="1.0" encoding="UTF-8"?>
<svg id="Layer_1" data-name="Layer 1" xmlns="http://www.w3.org/2000/svg" viewBox="0 0 203 203">
  <defs>
    <style>
      .cls-1 {
        fill: #ea9216;
      }

      .cls-2 {
        fill: #252c33;
      }

      .cls-3 {
        fill: #e8e8e8;
      }
    </style>
  </defs>
  <circle class="cls-3" cx="101.87" cy="101.76" r="101.04"/>
  <g>
    <g>
      <g>
        <path class="cls-2" d="M170.97,92.7l-34.51-8.57c-.36-.09-.73-.13-1.11-.13h-69.15c-.4,0-.8.05-1.17.15l-32.32,8.57c-3.92,1.04-2.96,5.57,1.17,5.57h36.69l10.31,10.46c.97.98,2.49,1.14,3.64.39l4.03-2.63c1.8-1.17,3.9-1.8,6.04-1.8h15.27c2.34,0,4.61.74,6.5,2.11l2.85,2.08c1.21.88,2.87.74,3.91-.33l10.06-10.29h36.68c4.18,0,5.09-4.6,1.11-5.58Z"/>
        <path class="cls-2" d="M106.73,33.18c-1.84-3.76-7.19-3.77-9.05-.02l-20.73,44.4h50.27l-20.49-44.38Z"/>
      </g>
      <g>
        <path class="cls-1" d="M97.37,95.78l-2.48.7c-1.39.65-2.51,1.77-3.16,3.16l-.7,1.51-.7-1.51c-.65-1.39-1.77-2.51-3.16-3.16l-2.48-.7,2.48-.7c1.39-.65,2.51-1.77,3.16-3.16l.7-1.51.7,1.51c.65,1.39,1.77,2.51,3.16,3.16l2.48.7Z"/>
        <path class="cls-1" d="M120.41,95.78l-2.48.7c-1.39.65-2.51,1.77-3.16,3.16l-.7,1.51-.7-1.51c-.65-1.39-1.77-2.51-3.16-3.16l-2.48-.7,2.48-.7c1.39-.65,2.51-1.77,3.16-3.16l.7-1.51.7,1.51c.65,1.39,1.77,2.51,3.16,3.16l2.48.7Z"/>
      </g>
    </g>
    <g>
      <path class="cls-2" d="M95.99,120.81l2.89-9.92c.21-.71,2.6-1.89,2.6.25,0,.44-1.37,7.97-1.43,8.57l-4.06,1.1Z"/>
      <path class="cls-2" d="M103.79,125.01c-.01-.88.48-1.81.38-2.69-.02-.13-.16-.5-.09-.58.03-.04.75-.38.85-.42.49-.19,1.61-.49,1.87.14.18.45,0,1.01-.23,1.42-.53.89-1.51,1.43-2.39,1.94-.06.03-.36.22-.39.19Z"/>
    </g>
    <path class="cls-2" d="M164.44,158.17l-24.48-53.02v.84l-34.84,43.71c-1.54,1.94-4.5,1.95-6.06.02l-4.34-5.38,3.9-3.9-2.4-5.39c.8-.77,2.07-1.71,2.11-1.73.6-.29,1.22-.72,1.61-1.27,0,0,.9-.49,1.2-.74l1.14-1.42c-.02-.73.62-1.6.44-2.29.37-.91.64-4.23.64-4.23l.13-.77c.02-.13-.43-1.67-.52-1.85-.15-.3-.4-.54-.77-.53-1.93.43-3.99.7-5.89,1.24-1.13.32-1.64.74-2.11,1.84-.76,1.8-1.39,3.8-2.1,5.64-.52,1.35-1.06,2.68-1.6,4.02,0,0-1.01.95-2.67,2.85l-24.05-29.81v-.22l-24.46,52.39c-.65,1.4.37,3,1.91,3h121.3c1.54,0,2.56-1.59,1.91-2.99Z"/>
  </g>
</svg>