<?xml version="1.0" encoding="UTF-8"?>
<svg id="Layer_1" data-name="Layer 1" xmlns="http://www.w3.org/2000/svg" viewBox="0 0 1130.62 185.47">
  <defs>
    <style>
      .cls-1 {
        fill: #ea9216;
      }

      .cls-2 {
        fill: #252c33;
      }
    </style>
  </defs>
  <g>
    <g>
      <g>
        <path class="cls-2" d="M201.54,89.88l-48.3-12c-.5-.12-1.02-.19-1.55-.19H54.9c-.56,0-1.11.07-1.64.21l-45.24,12c-5.48,1.45-4.15,7.79,1.64,7.79h51.35l14.43,14.64c1.35,1.37,3.48,1.6,5.09.55l5.63-3.68c2.51-1.64,5.45-2.52,8.46-2.52h21.37c3.27,0,6.46,1.04,9.1,2.96l3.99,2.9c1.69,1.23,4.02,1.03,5.48-.46l14.08-14.4h51.34c5.84,0,7.12-6.43,1.55-7.82Z"/>
        <path class="cls-2" d="M111.63,6.58c-2.57-5.26-10.07-5.28-12.66-.03l-29.01,62.14h70.35L111.63,6.58Z"/>
      </g>
      <g>
        <path class="cls-1" d="M98.52,94.19l-3.47.98c-1.95.91-3.51,2.47-4.42,4.42l-.98,2.11-.98-2.11c-.91-1.95-2.47-3.51-4.42-4.42l-3.47-.98,3.47-.98c1.95-.91,3.51-2.47,4.42-4.42l.98-2.11.98,2.11c.91,1.95,2.47,3.51,4.42,4.42l3.47.98Z"/>
        <path class="cls-1" d="M130.78,94.19l-3.47.98c-1.95.91-3.51,2.47-4.42,4.42l-.98,2.11-.98-2.11c-.91-1.95-2.47-3.51-4.42-4.42l-3.47-.98,3.47-.98c1.95-.91,3.51-2.47,4.42-4.42l.98-2.11.98,2.11c.91,1.95,2.47,3.51,4.42,4.42l3.47.98Z"/>
      </g>
    </g>
    <g>
      <path class="cls-2" d="M96.6,129.23l4.04-13.89c.29-.99,3.63-2.65,3.63.35,0,.62-1.92,11.16-2,12l-5.68,1.54Z"/>
      <path class="cls-2" d="M107.52,135.1c-.02-1.23.68-2.53.53-3.76-.02-.19-.22-.7-.13-.81.04-.05,1.05-.53,1.19-.58.69-.27,2.26-.69,2.62.2.26.64.01,1.42-.32,1.98-.75,1.25-2.12,2.01-3.34,2.72-.08.05-.5.3-.54.26Z"/>
    </g>
    <path class="cls-2" d="M192.4,181.51l-34.26-74.21v1.18l-48.75,61.17c-2.16,2.71-6.3,2.73-8.48.03l-6.08-7.53,5.45-5.45-3.35-7.54c1.11-1.08,2.9-2.39,2.95-2.42.84-.4,1.71-1.01,2.25-1.78,0,0,1.27-.69,1.68-1.03l1.6-1.99c-.02-1.02.87-2.24.61-3.21.52-1.27.9-5.93.9-5.93l.19-1.08c.03-.18-.6-2.34-.73-2.59-.21-.42-.56-.75-1.07-.74-2.7.61-5.58.98-8.24,1.74-1.58.45-2.3,1.04-2.95,2.57-1.07,2.52-1.95,5.32-2.94,7.9-.72,1.88-1.49,3.75-2.24,5.62,0,0-1.42,1.33-3.74,3.99l-33.66-41.72v-.31l-34.24,73.32c-.91,1.96.51,4.2,2.67,4.2h169.76c2.15,0,3.58-2.23,2.68-4.19Z"/>
  </g>
  <g>
    <g>
      <path class="cls-2" d="M220.57,159.88h41.34c3.51,0,5.21-1.59,5.21-4.19s-1.7-4.08-5.32-4.08h-18.8c-13.25,0-24.01-9.06-24.01-25.03,0-18.35,12.57-25.03,25.26-25.03h46.89v20.95h-40.44c-3.06,0-5.21,1.13-5.21,3.96s2.15,4.19,5.21,4.19h17.67c15.18,0,25.26,8.95,25.26,24.92,0,15.06-11.33,25.26-26.05,25.26h-47.35l.34-20.95Z"/>
      <path class="cls-2" d="M325.9,130.66v6.68h41.91v18.35h-41.91v6.8h41.91v18.35h-65.13v-68.53h65.13v18.35h-41.91Z"/>
      <path class="cls-2" d="M376.3,146.52c0-19.48,15.86-35.34,35.45-35.34,9.74,0,18.58,3.96,25.03,10.42l-16.2,15.97c-2.27-2.27-5.32-3.62-8.83-3.62-7.02,0-12.57,5.55-12.57,12.46s5.55,12.57,12.57,12.57c3.51,0,6.68-1.47,8.95-3.85l16.31,16.2c-6.46,6.57-15.4,10.65-25.26,10.65-19.59,0-35.45-15.86-35.45-35.45Z"/>
      <path class="cls-2" d="M547.66,130.66v6.68h41.91v18.35h-41.91v6.8h41.91v18.35h-65.13v-68.53h65.13v18.35h-41.91Z"/>
      <path class="cls-2" d="M619.25,130.66h-22.88v-18.35h68.98v18.35h-22.88v50.18h-23.22v-50.18Z"/>
      <path class="cls-2" d="M666.47,101.55h28.43l9.51,43.72h.91l16.42-22.77h1.13l16.42,22.77h.91l9.51-43.72h28.43l-18.58,79.29h-24.24l-12.91-20.95h-.45l-12.69,20.95h-24.24l-18.58-79.29Z"/>
      <path class="cls-2" d="M782.68,112.31h23.22v68.53h-23.22v-68.53Z"/>
      <path class="cls-2" d="M814.51,162.49l33.98-30.92v-.91h-33.98l-.11-18.35h65.47l-.11,18.24-35.57,31.15-.11.79h35.79v18.35h-65.35v-18.35Z"/>
      <path class="cls-2" d="M935.92,172.91h-24.69l-2.27,7.93h-26.05l22.88-68.53h35.57l22.88,68.53h-26.05l-2.26-7.93ZM930.83,154.56l-6.68-23.9h-1.13l-6.68,23.9h14.5Z"/>
      <path class="cls-2" d="M1025.85,154.67l15.06,26.16h-24.46l-13.71-25.26h-10.53v25.26h-23.22v-68.53h49.27c10.99,0,22.88,6.57,22.88,21.41,0,10.42-6.68,18.35-15.29,20.95ZM992.21,137.46h22.99c1.81,0,3.4-1.59,3.4-3.51,0-2.26-1.58-3.4-3.4-3.4h-22.99v6.91Z"/>
      <path class="cls-2" d="M1126.88,145.95c0,20.05-16.42,34.89-33.07,34.89h-44.74v-68.53h45.65c16.08,0,32.17,14.16,32.17,33.64ZM1103.55,145.84c0-8.16-6.68-15.18-15.18-15.18h-16.08v31.83h16.54c7.59,0,14.72-7.48,14.72-16.65Z"/>
    </g>
    <path class="cls-1" d="M818.16,102.58l-9.37,2.65c-5.25,2.45-9.46,6.66-11.91,11.91l-2.65,5.68-2.65-5.68c-2.45-5.25-6.66-9.46-11.91-11.91l-9.37-2.65,9.37-2.65c5.25-2.45,9.46-6.66,11.91-11.91l2.65-5.68,2.65,5.68c2.45,5.25,6.66,9.46,11.91,11.91l9.37,2.65Z"/>
    <g>
      <path class="cls-2" d="M474.07,132.59s.06-.02.06-.06c.04-.22-.25-.89-.37-1.09-1.39-2.36-4.85-2-5.68.62-.02.06-.17.58-.07.58,1.78-1.21,4.25-1.23,6.05-.04Z"/>
      <path class="cls-2" d="M464.14,134.37c-.87.66-.25,2.03.82,1.82.52-.1.9-.67.8-1.19-.15-.74-1.02-1.09-1.62-.63Z"/>
      <path class="cls-2" d="M472.67,135.63c.23-.14.39-.32.61-.46-1.14-1.26-3.25-1.26-4.41-.01.95,1.02,2.63,1.21,3.8.47Z"/>
      <path class="cls-2" d="M515.95,133.72c0-14.84-11.89-21.41-22.88-21.41h-49.27v68.53h23.22v-25.26h10.53l13.71,25.26h24.47l-15.06-26.16c8.61-2.61,15.29-10.53,15.29-20.95ZM494.25,136.77v2.16c-.02.15-.13.27-.27.31-.39-.06-1.76.12-2.03-.01-.19-.1-.2-.22-.22-.41-.07-.64.06-1.38,0-2.03h-.91c-.08.08.12,2.05-.04,2.29-.1.17-.19.17-.36.19-.19.02-1.82.02-1.91-.02-.13-.06-.21-.17-.22-.32v-2.13s-.91,0-.91,0c-.08.08.12,2.02-.04,2.28-.1.17-.19.17-.36.19-.19.02-1.82.02-1.91-.02-.13-.06-.21-.17-.22-.32v-2.13s-4.71.04-4.71.04h-1.33c-.09.05.08.58-.21.74-.19.1-1.14-.01-1.44.03-.55.09-.45.4-.54.78-.37,1.59-1.19,2.87-2.6,3.74-3.23,2.01-7.53.19-8.42-3.51-2.49.6-4.84-1.6-4.32-4.14.4-1.94,2.35-3.2,4.27-2.74.2-.6.39-1.18.73-1.72,2.6-4.16,8.9-3.3,10.23,1.43.13.45.03,1.07.61,1.15.27.04,1.3-.07,1.44,0,.35.19.15.72.25.79l15.54-.05c2.37.21,2.24,3.41-.08,3.41Z"/>
      <path class="cls-2" d="M468.06,137.71s-.06.02-.06.06c-.03.37.45,1.27.7,1.56,1.65,1.93,4.9,1.21,5.42-1.3.01-.05.09-.36,0-.36-1.77,1.23-4.26,1.22-6.05.04Z"/>
    </g>
  </g>
  <g>
    <path class="cls-2" d="M247.06,83.53h-4.87v-3.91h14.68v3.91h-4.87v10.68h-4.94v-10.68Z"/>
    <path class="cls-2" d="M275.03,79.62v14.59h-4.94v-5.35h-6.82v5.35h-4.94v-14.59h4.94v5.33h6.82v-5.33h4.94Z"/>
    <path class="cls-2" d="M282.27,83.53v1.42h8.92v3.91h-8.92v1.45h8.92v3.91h-13.86v-14.59h13.86v3.91h-8.92Z"/>
  </g>
</svg>